<svg preserveAspectRatio="none" overflow="visible" style="display: block;" width="18" height="21" viewBox="0 0 18 21" fill="none" xmlns="http://www.w3.org/2000/svg">
<path id="fill" d="M18 8.93617C18 4.00086 13.9706 0 9 0C4.02944 0 0 4.00086 0 8.93617C0 12.6993 2.34626 15.9106 5.65926 17.236C6.07241 17.3945 6.47119 17.5878 6.85129 17.8136C7.9299 18.453 8.61407 19.5905 8.77517 21H9.22517C9.38625 19.5905 10.0704 18.453 11.149 17.8136C11.661 17.5101 12.3409 17.2359 12.3409 17.2359C14.0115 16.5724 15.4435 15.4271 16.4522 13.9477C17.461 12.4683 18.0001 10.7227 18 8.93617V8.93617Z" fill="white"/>
</svg>
