<svg preserveAspectRatio="none" overflow="visible" style="display: block;" width="16" height="16" viewBox="0 0 16 16" fill="none" xmlns="http://www.w3.org/2000/svg">
<g id="replacement-icon">
<path id="vector-icon" fill-rule="evenodd" clip-rule="evenodd" d="M9.66671 2.16667C9.66671 3.08714 8.92052 3.83333 8.00004 3.83333C7.07957 3.83333 6.33338 3.08714 6.33338 2.16667C6.33338 1.24619 7.07957 0.5 8.00004 0.5C8.92052 0.5 9.66671 1.24619 9.66671 2.16667ZM9.6667 8C9.6667 8.92047 8.92051 9.66667 8.00004 9.66667C7.07956 9.66667 6.33337 8.92047 6.33337 8C6.33337 7.07953 7.07956 6.33333 8.00004 6.33333C8.92051 6.33333 9.6667 7.07953 9.6667 8ZM8.00004 15.5C8.92051 15.5 9.6667 14.7538 9.6667 13.8333C9.6667 12.9129 8.92051 12.1667 8.00004 12.1667C7.07956 12.1667 6.33337 12.9129 6.33337 13.8333C6.33337 14.7538 7.07956 15.5 8.00004 15.5Z" fill="#8593A5"/>
</g>
</svg>
