<svg preserveAspectRatio="none" overflow="visible" style="display: block;" width="16" height="16" viewBox="0 0 16 16" fill="none" xmlns="http://www.w3.org/2000/svg">
<g id="replacement-icon">
<path id="vector-icon" fill-rule="evenodd" clip-rule="evenodd" d="M1.75 0.5C1.05964 0.5 0.5 1.05964 0.5 1.75V10.9167C0.5 11.607 1.05964 12.1667 1.75 12.1667H3.83333V14.6667C3.83333 14.987 4.01696 15.279 4.30568 15.4178C4.5944 15.5565 4.9371 15.5175 5.18725 15.3174L9.12565 12.1667H14.25C14.9404 12.1667 15.5 11.607 15.5 10.9167V1.75C15.5 1.05964 14.9404 0.5 14.25 0.5H1.75ZM4.66667 7.16667C4.20643 7.16667 3.83333 7.53976 3.83333 8C3.83333 8.46024 4.20643 8.83333 4.66667 8.83333H11.3333C11.7936 8.83333 12.1667 8.46024 12.1667 8C12.1667 7.53976 11.7936 7.16667 11.3333 7.16667H4.66667Z" fill="#262626"/>
</g>
</svg>
